<svg width="64" height="64" viewBox="0 0 64 64" fill="none" xmlns="http://www.w3.org/2000/svg">
<g clip-path="url(#clip0_1_998)">
<path d="M51.7791 15.3317L12.7317 22.5767C11.4994 22.8054 10.6858 23.9897 10.9144 25.222L15.8824 51.9974C16.111 53.2297 17.2954 54.0433 18.5277 53.8147L57.5751 46.5697C58.8074 46.341 59.621 45.1567 59.3924 43.9244L54.4244 17.149C54.1957 15.9167 53.0114 15.1031 51.7791 15.3317Z" fill="url(#paint0_linear_1_998)"/>
<path d="M12.7317 22.5767C12.1399 22.6865 11.616 23.0269 11.2752 23.523C10.9344 24.0191 10.8046 24.6302 10.9144 25.222L15.2614 48.6505L50.9619 42.0265C51.8496 41.8618 52.6354 41.3512 53.1466 40.6071C53.6579 39.8629 53.8525 38.9462 53.6878 38.0585L49.5478 15.7457L12.7317 22.5767Z" fill="url(#paint1_linear_1_998)"/>
<path d="M44.9588 9.67256L5.91142 16.9175C4.67912 17.1462 3.8655 18.3305 4.09414 19.5628L9.06213 46.3382C9.29078 47.5705 10.4751 48.3841 11.7074 48.1555L50.7548 40.9105C51.9871 40.6819 52.8008 39.4975 52.5721 38.2652L47.6041 11.4898C47.3755 10.2575 46.1911 9.44391 44.9588 9.67256Z" fill="url(#paint2_linear_1_998)"/>
<path d="M48.2253 14.8367L4.71527 22.9097L6.16427 30.7192L49.6743 22.6462L48.2253 14.8367Z" fill="#4757E4"/>
<path d="M8.02727 40.7603L9.06227 46.3385C9.17207 46.9302 9.51245 47.4541 10.0085 47.795C10.5046 48.1358 11.1158 48.2655 11.7075 48.1557L50.755 40.9108C51.3467 40.801 51.8707 40.4606 52.2115 39.9645C52.5523 39.4684 52.682 38.8572 52.5722 38.2655L51.5373 32.6873L8.02727 40.7603Z" fill="url(#paint3_linear_1_998)"/>
<path d="M15.2615 48.6501L15.8825 51.9971C15.9923 52.5888 16.3327 53.1128 16.8287 53.4536C17.3248 53.7944 17.936 53.9241 18.5278 53.8143L57.5752 46.5694C58.1669 46.4596 58.6909 46.1192 59.0317 45.6231C59.3725 45.127 59.5023 44.5159 59.3925 43.9241L58.7715 40.5772L15.2615 48.6501Z" fill="url(#paint4_linear_1_998)"/>
<path d="M52.7193 51.2269C50.3703 51.008 41.924 49.7952 40.5282 43.6093L38.4941 34.5951L47.721 29.0906L58.4175 30.0995L60.4515 39.1138C61.8542 45.3299 54.752 50.0259 52.7193 51.2269Z" fill="#0DC03D"/>
<path d="M50.7159 42.372C50.5706 42.4048 50.4202 42.4087 50.2733 42.3833C50.1265 42.358 49.9861 42.3039 49.8602 42.2242L47.147 40.51C46.8982 40.3468 46.7236 40.0924 46.6606 39.8016C46.5976 39.5108 46.6514 39.2069 46.8103 38.9554C46.9692 38.7039 47.2206 38.5248 47.5102 38.4568C47.7999 38.3888 48.1046 38.4373 48.3589 38.5918L49.9659 39.6071L51.7523 35.6241C51.8133 35.4882 51.9005 35.3655 52.0088 35.2633C52.1172 35.161 52.2446 35.081 52.3839 35.028C52.5232 34.975 52.6715 34.9499 52.8204 34.9542C52.9694 34.9585 53.116 34.9921 53.252 35.0531C53.3879 35.1141 53.5106 35.2012 53.6128 35.3096C53.7151 35.418 53.7951 35.5454 53.8481 35.6847C53.9011 35.8239 53.9262 35.9722 53.9219 36.1212C53.9176 36.2701 53.884 36.4168 53.823 36.5527L51.5015 41.7294C51.4351 41.8778 51.3375 42.0102 51.2154 42.1175C51.0933 42.2249 50.9496 42.3047 50.7939 42.3515C50.7681 42.359 50.7418 42.3661 50.7159 42.372Z" fill="white"/>
<path fill-rule="evenodd" clip-rule="evenodd" d="M34.1762 20.4793C34.8397 20.3358 35.6697 20.3812 36.2566 20.9681C36.8435 21.555 36.8889 22.3851 36.7454 23.0493C36.5777 23.773 36.2099 24.435 35.6841 24.9598L34.3158 26.3289L36.2909 32.2568C36.3854 32.5401 36.3991 32.8441 36.3305 33.1348C36.2619 33.4255 36.1137 33.6913 35.9026 33.9026L34.539 35.2661C34.4532 35.3518 34.3489 35.4169 34.2342 35.4564C34.1194 35.4958 33.9972 35.5086 33.8768 35.4938C33.7563 35.4789 33.6409 35.4369 33.5391 35.3708C33.4374 35.3046 33.352 35.2162 33.2895 35.1122L30.3503 30.2138L27.9805 32.1523L28.3744 34.1195C28.4263 34.3791 28.4133 34.6476 28.3365 34.9011C28.2597 35.1545 28.1216 35.3851 27.9342 35.5723L27.3825 36.1249C27.3083 36.1992 27.2203 36.2581 27.1233 36.2983C27.0264 36.3385 26.9225 36.3592 26.8175 36.3592C26.7126 36.3592 26.6086 36.3385 26.5117 36.2983C26.4147 36.2581 26.3267 36.1992 26.2525 36.1249L21.0998 30.9722C21.0255 30.898 20.9666 30.81 20.9264 30.713C20.8862 30.6161 20.8655 30.5122 20.8655 30.4072C20.8655 30.3023 20.8862 30.1983 20.9264 30.1014C20.9666 30.0044 21.0255 29.9164 21.0998 29.8423L21.6524 29.2905C21.8396 29.1031 22.0702 28.965 22.3236 28.8882C22.5771 28.8114 22.8456 28.7984 23.1052 28.8503L25.0724 29.2442L27.0117 26.8736L22.1101 23.9328C22.006 23.8704 21.9174 23.7851 21.8512 23.6834C21.785 23.5816 21.7429 23.4661 21.7281 23.3456C21.7132 23.2251 21.726 23.1028 21.7656 22.9881C21.8051 22.8733 21.8703 22.7691 21.9562 22.6833L23.3197 21.3197C23.7503 20.8891 24.3882 20.7384 24.9664 20.9314L30.8974 22.9089L32.2641 21.5406C32.7983 21.0072 33.4913 20.6276 34.1762 20.4793ZM28.5546 27.5083L26.0046 30.6261C25.9127 30.7383 25.7921 30.8235 25.6555 30.8723C25.519 30.9212 25.3717 30.932 25.2295 30.9036L22.8054 30.4196L26.8051 34.4185L26.3211 31.9944C26.2928 31.8525 26.3036 31.7056 26.3523 31.5693C26.4011 31.4331 26.4859 31.3127 26.5978 31.2209L29.7156 28.6693L34.555 23.8307C34.8642 23.5225 35.0822 23.1348 35.1849 22.7104C35.2702 22.3149 35.173 22.1426 35.1275 22.0972C35.0821 22.0525 34.9098 21.9545 34.5143 22.0406C34.0899 22.1433 33.7022 22.3613 33.394 22.6705L28.5554 27.5075L28.5546 27.5083ZM29.6311 24.1696L28.1224 25.6775L23.8085 23.0899L24.4496 22.4488C24.4511 22.4475 24.4529 22.4465 24.4549 22.4461C24.4569 22.4457 24.4589 22.4458 24.4608 22.4465L29.6311 24.1696ZM31.5448 29.0999L33.0527 27.5912L34.7759 32.7615C34.7775 32.7655 34.7759 32.7695 34.7735 32.7727L34.1332 33.4138L31.5448 29.0999Z" fill="white"/>
</g>
<defs>
<linearGradient id="paint0_linear_1_998" x1="32.2813" y1="19.0937" x2="38.1143" y2="50.5313" gradientUnits="userSpaceOnUse">
<stop stop-color="#FFCA4F"/>
<stop offset="1" stop-color="#F7AE30"/>
</linearGradient>
<linearGradient id="paint1_linear_1_998" x1="30.2791" y1="20.7427" x2="34.6874" y2="44.5014" gradientUnits="userSpaceOnUse">
<stop stop-color="#F7AE30"/>
<stop offset="1" stop-color="#FFCA4F" stop-opacity="0"/>
</linearGradient>
<linearGradient id="paint2_linear_1_998" x1="25.7456" y1="14.9685" x2="31.1123" y2="43.8926" gradientUnits="userSpaceOnUse">
<stop stop-color="#14A5FF"/>
<stop offset="1" stop-color="#037CFF"/>
</linearGradient>
<linearGradient id="paint3_linear_1_998" x1="29.8599" y1="37.1421" x2="31.2014" y2="44.3726" gradientUnits="userSpaceOnUse">
<stop stop-color="#037CFF" stop-opacity="0"/>
<stop offset="1" stop-color="#0063CC"/>
</linearGradient>
<linearGradient id="paint4_linear_1_998" x1="37.021" y1="44.6382" x2="38.0626" y2="50.2521" gradientUnits="userSpaceOnUse">
<stop stop-color="#FFCA4F" stop-opacity="0"/>
<stop offset="1" stop-color="#F4901F"/>
</linearGradient>
<clipPath id="clip0_1_998">
<rect width="54.4647" height="54.4647" fill="white" transform="translate(0 9.93604) rotate(-10.5113)"/>
</clipPath>
</defs>
</svg>
