<svg width="24" height="24" viewBox="0 0 24 24" fill="none" xmlns="http://www.w3.org/2000/svg">
<path d="M19.9296 5.5C18.9796 4.7 17.7896 4.25 16.5796 4.25C14.6296 4.25 12.9296 5.34 11.9996 6.97C11.0696 5.34 9.35965 4.25 7.41965 4.25C6.39965 4.25 5.39965 4.55 4.54965 5.13C2.54965 6.47 1.73965 9.26 2.61965 11.77C3.02965 12.94 3.57965 14.05 4.25965 15.06C6.63965 18.63 9.99965 20.13 11.7796 20.71C11.8596 20.73 11.9296 20.75 12.0096 20.75C12.0896 20.75 12.1696 20.74 12.2396 20.71C14.0296 20.13 17.3796 18.62 19.7596 15.06C20.4396 14.04 20.9896 12.93 21.4096 11.75C22.2196 9.44 21.6296 6.92 19.9496 5.5H19.9296ZM19.9796 11.26C19.6096 12.32 19.1096 13.32 18.4996 14.23C16.4696 17.27 13.6396 18.64 11.9896 19.21C10.3396 18.64 7.51965 17.27 5.47965 14.23C4.86965 13.32 4.37965 12.33 4.00965 11.28C3.34965 9.4 3.91965 7.34 5.35965 6.38C5.96965 5.97 6.67965 5.76 7.39965 5.76C9.50965 5.76 11.2296 7.59 11.2296 9.83C11.2296 10.24 11.5696 10.58 11.9796 10.58C12.3896 10.58 12.7296 10.24 12.7296 9.83C12.7296 7.58 14.4496 5.76 16.5596 5.76C17.4296 5.76 18.2496 6.07 18.9396 6.65C20.1496 7.68 20.5596 9.53 19.9596 11.27L19.9796 11.26Z" fill="#545C5C"/>
</svg>
