<svg width="24" height="24" viewBox="0 0 24 24" fill="none" xmlns="http://www.w3.org/2000/svg">
<path d="M21.12 9.79006L14.12 2.79006C13.5477 2.24705 12.7889 1.94434 12 1.94434C11.2111 1.94434 10.4523 2.24705 9.88 2.79006L2.88 9.79006C2.31723 10.3521 2.0007 11.1147 2 11.9101V19.0901C2 19.8857 2.31607 20.6488 2.87868 21.2114C3.44129 21.774 4.20435 22.0901 5 22.0901H9H9.63739C10 22.0901 10.055 22.0901 11.055 22.0901C11.1679 22.0901 11.176 22.0901 11.9716 22.0901C12.7673 22.0901 12.1994 22.0901 12.6994 22.0901C13.1994 22.0901 13.4589 22.0901 13.9589 22.0901H15H19C19.7956 22.0901 20.5587 21.774 21.1213 21.2114C21.6839 20.6488 22 19.8857 22 19.0901V11.9101C21.9993 11.1147 21.6828 10.3521 21.12 9.79006Z" fill="#4757E4"/>
<path d="M14.1818 16H9.81818C9.37091 16 9 16.34 9 16.75C9 17.16 9.37091 17.5 9.81818 17.5H14.1818C14.6291 17.5 15 17.16 15 16.75C15 16.34 14.6291 16 14.1818 16Z" fill="white"/>
</svg>
