<svg width="30" height="30" viewBox="0 0 30 30" fill="none" xmlns="http://www.w3.org/2000/svg">
<path d="M25.7631 4.16391H3.74035V25.6071H25.7631V4.16391Z" fill="url(#paint0_linear_1_334)"/>
<path d="M19.9668 25.0275V19.8116C19.9668 19.1714 19.4479 18.6525 18.8077 18.6525H10.6941C10.0539 18.6525 9.53498 19.1714 9.53498 19.8116V25.0275C9.53498 25.6676 10.0539 26.1866 10.6941 26.1866H18.8077C19.4479 26.1866 19.9668 25.6676 19.9668 25.0275Z" fill="url(#paint1_linear_1_334)"/>
<path d="M9.53238 7.06163H7.2142C6.89413 7.06163 6.63465 7.3211 6.63465 7.64118V9.37981C6.63465 9.69989 6.89413 9.95936 7.2142 9.95936H9.53238C9.85246 9.95936 10.1119 9.69989 10.1119 9.37981V7.64118C10.1119 7.3211 9.85246 7.06163 9.53238 7.06163Z" fill="white"/>
<path d="M15.9074 7.06163H13.5892C13.2691 7.06163 13.0097 7.3211 13.0097 7.64118V9.37981C13.0097 9.69989 13.2691 9.95936 13.5892 9.95936H15.9074C16.2275 9.95936 16.4869 9.69989 16.4869 9.37981V7.64118C16.4869 7.3211 16.2275 7.06163 15.9074 7.06163Z" fill="white"/>
<path d="M22.2824 7.06163H19.9642C19.6441 7.06163 19.3847 7.3211 19.3847 7.64118V9.37981C19.3847 9.69989 19.6441 9.95936 19.9642 9.95936H22.2824C22.6025 9.95936 22.8619 9.69989 22.8619 9.37981V7.64118C22.8619 7.3211 22.6025 7.06163 22.2824 7.06163Z" fill="white"/>
<path d="M9.53249 12.8574H7.21431C6.89424 12.8574 6.63477 13.1169 6.63477 13.437V15.1756C6.63477 15.4957 6.89424 15.7551 7.21431 15.7551H9.53249C9.85257 15.7551 10.112 15.4957 10.112 15.1756V13.437C10.112 13.1169 9.85257 12.8574 9.53249 12.8574Z" fill="white"/>
<path d="M15.9075 12.8574H13.5893C13.2692 12.8574 13.0098 13.1169 13.0098 13.437V15.1756C13.0098 15.4957 13.2692 15.7551 13.5893 15.7551H15.9075C16.2276 15.7551 16.487 15.4957 16.487 15.1756V13.437C16.487 13.1169 16.2276 12.8574 15.9075 12.8574Z" fill="white"/>
<path d="M18.8084 19.2324H10.6948C10.3747 19.2324 10.1152 19.4919 10.1152 19.812V25.0279C10.1152 25.348 10.3747 25.6074 10.6948 25.6074H18.8084C19.1285 25.6074 19.388 25.348 19.388 25.0279V19.812C19.388 19.4919 19.1285 19.2324 18.8084 19.2324Z" fill="url(#paint2_linear_1_334)"/>
<path d="M10.1153 23.2889V25.0275C10.1153 25.1813 10.1764 25.3287 10.2851 25.4373C10.3938 25.546 10.5412 25.6071 10.6949 25.6071H18.8085C18.9622 25.6071 19.1096 25.546 19.2183 25.4373C19.327 25.3287 19.3881 25.1813 19.3881 25.0275V23.2889H10.1153Z" fill="url(#paint3_linear_1_334)"/>
<path d="M22.2825 12.8574H19.9643C19.6442 12.8574 19.3848 13.1169 19.3848 13.437V15.1756C19.3848 15.4957 19.6442 15.7551 19.9643 15.7551H22.2825C22.6026 15.7551 22.862 15.4957 22.862 15.1756V13.437C22.862 13.1169 22.6026 12.8574 22.2825 12.8574Z" fill="white"/>
<path d="M26.9205 25.0275H2.57955C2.25947 25.0275 2 25.287 2 25.607V26.7661C2 27.0862 2.25947 27.3457 2.57955 27.3457H26.9205C27.2405 27.3457 27.5 27.0862 27.5 26.7661V25.607C27.5 25.287 27.2405 25.0275 26.9205 25.0275Z" fill="url(#paint4_linear_1_334)"/>
<path d="M26.9205 1.8457H2.57955C2.25947 1.8457 2 2.10517 2 2.42525V3.58434C2 3.90441 2.25947 4.16389 2.57955 4.16389H26.9205C27.2405 4.16389 27.5 3.90441 27.5 3.58434V2.42525C27.5 2.10517 27.2405 1.8457 26.9205 1.8457Z" fill="url(#paint5_linear_1_334)"/>
<path d="M2 26.7665C2 26.9202 2.06106 27.0676 2.16974 27.1763C2.27843 27.285 2.42584 27.3461 2.57955 27.3461H26.9205C27.0742 27.3461 27.2216 27.285 27.3303 27.1763C27.4389 27.0676 27.5 26.9202 27.5 26.7665V25.6074H2V26.7665Z" fill="url(#paint6_linear_1_334)"/>
<path d="M2 2.49805V3.58469C2 3.7384 2.06106 3.88581 2.16974 3.9945C2.27843 4.10318 2.42584 4.16424 2.57955 4.16424H26.9205C27.0742 4.16424 27.2216 4.10318 27.3303 3.9945C27.4389 3.88581 27.5 3.7384 27.5 3.58469V2.49805H2Z" fill="url(#paint7_linear_1_334)"/>
<defs>
<linearGradient id="paint0_linear_1_334" x1="14.7517" y1="4.54682" x2="14.7517" y2="25.8537" gradientUnits="userSpaceOnUse">
<stop stop-color="#FF4343"/>
<stop offset="1" stop-color="#E40000"/>
</linearGradient>
<linearGradient id="paint1_linear_1_334" x1="14.7509" y1="18.7249" x2="14.7509" y2="26.0185" gradientUnits="userSpaceOnUse">
<stop stop-color="#3F4C56"/>
<stop offset="1" stop-color="#27333E"/>
</linearGradient>
<linearGradient id="paint2_linear_1_334" x1="14.7516" y1="19.3918" x2="14.7516" y2="25.6221" gradientUnits="userSpaceOnUse">
<stop stop-color="#FFCA4F"/>
<stop offset="1" stop-color="#F7AE30"/>
</linearGradient>
<linearGradient id="paint3_linear_1_334" x1="14.7517" y1="23.3434" x2="14.7517" y2="25.0646" gradientUnits="userSpaceOnUse">
<stop stop-color="#B35E3E" stop-opacity="0"/>
<stop offset="1" stop-color="#96492D"/>
</linearGradient>
<linearGradient id="paint4_linear_1_334" x1="14.75" y1="25.0999" x2="14.75" y2="27.0281" gradientUnits="userSpaceOnUse">
<stop stop-color="#9AA6E2"/>
<stop offset="1" stop-color="#7283D6"/>
</linearGradient>
<linearGradient id="paint5_linear_1_334" x1="14.75" y1="1.88221" x2="14.75" y2="4.23633" gradientUnits="userSpaceOnUse">
<stop stop-color="#9AA6E2"/>
<stop offset="1" stop-color="#7283D6"/>
</linearGradient>
<linearGradient id="paint6_linear_1_334" x1="14.75" y1="25.6619" x2="14.75" y2="27.1079" gradientUnits="userSpaceOnUse">
<stop stop-color="#7283D6" stop-opacity="0"/>
<stop offset="1" stop-color="#4D62CB"/>
</linearGradient>
<linearGradient id="paint7_linear_1_334" x1="0.840909" y1="2.52413" x2="14.75" y2="4.2164" gradientUnits="userSpaceOnUse">
<stop stop-color="#7283D6" stop-opacity="0"/>
<stop offset="1" stop-color="#4D62CB"/>
</linearGradient>
</defs>
</svg>
