<svg width="26" height="26" viewBox="0 0 26 26" fill="none" xmlns="http://www.w3.org/2000/svg">
<path d="M9.01454 25.5566L4.91697 20.6394L0 16.5433L0.796799 15.7465C1.15633 15.3868 1.62413 15.1554 2.12813 15.0879C2.63213 15.0203 3.14436 15.1204 3.58588 15.3727L7.78545 17.7725L10.1851 21.9723C10.4374 22.4138 10.5374 22.9261 10.4699 23.4301C10.4023 23.9341 10.1709 24.402 9.81134 24.7615L9.01454 25.5566Z" fill="url(#paint0_linear_1_353)"/>
<path d="M2.96409 15.1339C2.58063 15.0428 2.18025 15.0512 1.80095 15.1584C1.42165 15.2655 1.076 15.4677 0.796798 15.7459L0 16.5433L4.91697 20.6411L9.01454 25.5566L9.81134 24.7598C10.0895 24.4806 10.2917 24.1349 10.3988 23.7556C10.5059 23.3763 10.5144 22.9759 10.4233 22.5924L2.96409 15.1339Z" fill="url(#paint1_linear_1_353)"/>
<path d="M24.7036 18.5148L19.7357 5.77343L6.99557 0.805752C6.576 0.642263 6.11791 0.604526 5.67725 0.69715C5.23658 0.789774 4.83244 1.00875 4.51419 1.32732L2.71777 3.12384L14.8187 10.6907L22.3851 22.7934L24.1815 20.9969C24.5003 20.6787 24.7194 20.2744 24.8121 19.8336C24.9049 19.3928 24.8671 18.9345 24.7036 18.5148Z" fill="url(#paint2_linear_1_353)"/>
<path d="M23.4716 15.357L10.1515 2.03608L6.99557 0.805752C6.576 0.642263 6.11791 0.604526 5.67725 0.69715C5.23659 0.789774 4.83244 1.00875 4.51419 1.32732L2.71777 3.12384L14.8187 10.6907L22.3851 22.7934L24.1815 20.9969C24.4999 20.6787 24.7188 20.2746 24.8115 19.8341C24.9041 19.3935 24.8664 18.9355 24.703 18.516L23.4716 15.357Z" fill="url(#paint3_linear_1_353)"/>
<path d="M3.99755 21.5046C3.65798 21.1663 3.4549 20.7148 3.42711 20.2364C3.39932 19.7579 3.54876 19.2859 3.84688 18.9106C6.35086 15.7592 15.4326 5.14984 18.3388 2.24411C19.4178 1.16504 21.563 0.440638 22.9028 0.0720613C23.2523 -0.023153 23.6209 -0.0240276 23.9708 0.0695266C24.3208 0.163081 24.6397 0.347721 24.8951 0.604643C25.152 0.860055 25.3367 1.179 25.4302 1.52898C25.5237 1.87897 25.5229 2.2475 25.4277 2.59704C25.0591 3.93632 24.3353 6.08172 23.2557 7.16137C20.2685 10.1488 9.72407 19.1708 6.58961 21.6564C6.21433 21.9539 5.74269 22.1029 5.26462 22.0749C4.78656 22.0469 4.33553 21.8439 3.99755 21.5046Z" fill="url(#paint4_linear_1_353)"/>
<path d="M22.4348 5.2826C22.2811 5.2826 22.1337 5.22154 22.025 5.11286C21.9163 5.00418 21.8553 4.85678 21.8553 4.70308C21.8607 4.41166 21.7774 4.12548 21.6165 3.88247C21.3737 3.722 21.0882 3.63839 20.7971 3.64255C20.6434 3.64255 20.496 3.58149 20.3874 3.47281C20.2787 3.36413 20.2176 3.21672 20.2176 3.06303C20.2176 2.90933 20.2787 2.76192 20.3874 2.65324C20.496 2.54456 20.6434 2.4835 20.7971 2.4835C21.3944 2.47875 21.9744 2.68385 22.4359 3.06303C22.8151 3.52458 23.0202 4.1046 23.0154 4.70192C23.0156 4.77822 23.0006 4.85379 22.9715 4.92432C22.9424 4.99484 22.8996 5.05891 22.8457 5.11286C22.7917 5.16681 22.7277 5.20958 22.6571 5.23871C22.5866 5.26784 22.5111 5.28275 22.4348 5.2826Z" fill="url(#paint5_linear_1_353)"/>
<path d="M10.7295 10.7295C7.85636 14.0583 5.06669 17.3731 3.84455 18.9112C3.54783 19.2868 3.3993 19.7583 3.42714 20.2362C3.45498 20.7141 3.65724 21.1651 3.99557 21.5038C4.3339 21.8424 4.78475 22.0451 5.26258 22.0733C5.74042 22.1015 6.212 21.9534 6.58785 21.657C8.1235 20.44 11.4393 17.6507 14.7726 14.7728L10.7295 10.7295Z" fill="url(#paint6_linear_1_353)"/>
<defs>
<linearGradient id="paint0_linear_1_353" x1="7.69389" y1="17.8362" x2="4.03593" y2="21.5305" gradientUnits="userSpaceOnUse">
<stop stop-color="#9AA6E2"/>
<stop offset="1" stop-color="#7283D6"/>
</linearGradient>
<linearGradient id="paint1_linear_1_353" x1="6.55229" y1="18.9895" x2="4.08352" y2="21.4824" gradientUnits="userSpaceOnUse">
<stop stop-color="#7283D6" stop-opacity="0"/>
<stop offset="1" stop-color="#4D62CB"/>
</linearGradient>
<linearGradient id="paint2_linear_1_353" x1="19.8232" y1="5.43325" x2="13.7381" y2="11.7596" gradientUnits="userSpaceOnUse">
<stop stop-color="#9AA6E2"/>
<stop offset="1" stop-color="#7283D6"/>
</linearGradient>
<linearGradient id="paint3_linear_1_353" x1="16.4198" y1="8.97239" x2="12.8233" y2="12.7113" gradientUnits="userSpaceOnUse">
<stop stop-color="#7283D6" stop-opacity="0"/>
<stop offset="1" stop-color="#4D62CB"/>
</linearGradient>
<linearGradient id="paint4_linear_1_353" x1="24.7132" y1="0.731559" x2="3.99518" y2="21.7381" gradientUnits="userSpaceOnUse">
<stop stop-color="#EAECF7"/>
<stop offset="1" stop-color="#CDD3F1"/>
</linearGradient>
<linearGradient id="paint5_linear_1_353" x1="22.4788" y1="2.95407" x2="21.0659" y2="4.47524" gradientUnits="userSpaceOnUse">
<stop stop-color="#9AA6E2"/>
<stop offset="1" stop-color="#7283D6"/>
</linearGradient>
<linearGradient id="paint6_linear_1_353" x1="12.7003" y1="12.8019" x2="4.00746" y2="21.6159" gradientUnits="userSpaceOnUse">
<stop stop-color="#E2E5F4" stop-opacity="0"/>
<stop offset="1" stop-color="#9AA6E2"/>
</linearGradient>
</defs>
</svg>
