<svg width="78" height="78" viewBox="0 0 78 78" fill="none" xmlns="http://www.w3.org/2000/svg">
<g filter="url(#filter0_ddii_1_1229)">
<g clip-path="url(#clip0_1_1229)">
<rect x="10" y="10" width="58" height="58" rx="29" fill="url(#paint0_linear_1_1229)"/>
<g clip-path="url(#clip1_1_1229)">
<path d="M53.8062 33.6471C53.778 33.6862 53.7381 33.7154 53.6924 33.7305L52.4643 34.1395C52.1944 34.2295 51.949 34.3811 51.7478 34.5823C51.5466 34.7835 51.395 35.0289 51.305 35.2989L50.896 36.5269C50.8809 36.5727 50.8517 36.6125 50.8126 36.6407C50.7735 36.6689 50.7265 36.6841 50.6783 36.6841C50.6301 36.6841 50.5831 36.6689 50.544 36.6407C50.505 36.6125 50.4758 36.5727 50.4606 36.5269L50.0516 35.2989C49.9617 35.0289 49.8101 34.7835 49.6089 34.5823C49.4076 34.3811 49.1623 34.2295 48.8923 34.1395L47.6643 33.7305C47.6185 33.7154 47.5787 33.6862 47.5505 33.6471C47.5222 33.608 47.507 33.5611 47.507 33.5128C47.507 33.4646 47.5222 33.4176 47.5505 33.3786C47.5787 33.3395 47.6185 33.3103 47.6643 33.2951L48.8923 32.8861C49.1623 32.7962 49.4076 32.6446 49.6089 32.4434C49.8101 32.2421 49.9617 31.9968 50.0516 31.7268L50.4606 30.4988C50.4758 30.453 50.505 30.4132 50.544 30.385C50.5831 30.3567 50.6301 30.3416 50.6783 30.3416C50.7265 30.3416 50.7735 30.3567 50.8126 30.385C50.8517 30.4132 50.8809 30.453 50.896 30.4988L51.305 31.7268C51.4878 32.2742 51.9169 32.7033 52.4643 32.8861L53.6924 33.2951C53.7381 33.3103 53.778 33.3395 53.8062 33.3786C53.8344 33.4176 53.8496 33.4646 53.8496 33.5128C53.8496 33.5611 53.8344 33.608 53.8062 33.6471Z" fill="#DDDDDD"/>
<path d="M48.3088 28.9221C48.6575 29.0384 48.6575 29.5309 48.3087 29.6471L46.2617 30.3288C45.8118 30.4787 45.403 30.7313 45.0677 31.0666C44.7324 31.4019 44.4798 31.8107 44.3298 32.2606L43.6482 34.3077C43.6231 34.384 43.5746 34.4505 43.5095 34.4977C43.4444 34.5448 43.3661 34.5702 43.2857 34.5702C43.2053 34.5702 43.127 34.5448 43.0619 34.4977C42.9968 34.4505 42.9483 34.384 42.9232 34.3077L42.2416 32.2606C42.0916 31.8107 41.839 31.4019 41.5037 31.0666C41.1684 30.7313 40.7596 30.4787 40.3097 30.3288L38.2626 29.6471C38.1863 29.622 38.1198 29.5735 38.0726 29.5084C38.0255 29.4433 38.0001 29.365 38.0001 29.2846C38.0001 29.2042 38.0255 29.1259 38.0726 29.0608C38.1198 28.9957 38.1863 28.9472 38.2626 28.9221L40.3086 28.2405C40.7587 28.0907 41.1677 27.8381 41.5032 27.5028C41.8387 27.1675 42.0915 26.7586 42.2416 26.3086L42.9232 24.2616C43.0395 23.9128 43.5319 23.9128 43.6482 24.2616L44.3298 26.3076C44.4796 26.7576 44.7322 27.1666 45.0675 27.5021C45.4028 27.8377 45.8117 28.0904 46.2617 28.2405L48.3088 28.9221Z" fill="white"/>
<path d="M54.8807 26.2009C54.8622 26.2269 54.8361 26.2464 54.806 26.2568H54.805L53.988 26.5284C53.6224 26.65 53.336 26.9364 53.2144 27.302L52.9418 28.12C52.9314 28.1501 52.9118 28.1762 52.8859 28.1947C52.8599 28.2131 52.8289 28.2231 52.797 28.2231C52.7652 28.2231 52.7341 28.2131 52.7082 28.1947C52.6822 28.1762 52.6627 28.1501 52.6522 28.12L52.3796 27.3031C52.3196 27.1229 52.2185 26.9591 52.0842 26.8249C51.9499 26.6906 51.7862 26.5894 51.606 26.5295L50.788 26.2568C50.7579 26.2464 50.7318 26.2269 50.7133 26.2009C50.6949 26.175 50.685 26.1439 50.685 26.1121C50.685 26.0802 50.6949 26.0491 50.7133 26.0232C50.7318 25.9973 50.7579 25.9777 50.788 25.9673L51.606 25.6946C51.7862 25.6347 51.9499 25.5335 52.0842 25.3992C52.2185 25.265 52.3196 25.1012 52.3796 24.921L52.6522 24.103C52.6627 24.073 52.6822 24.0469 52.7082 24.0284C52.7341 24.0099 52.7652 24 52.797 24C52.8289 24 52.8599 24.0099 52.8859 24.0284C52.9118 24.0469 52.9314 24.073 52.9418 24.103L53.2144 24.921C53.336 25.2867 53.6224 25.5731 53.988 25.6946L54.806 25.9673C54.8361 25.9777 54.8622 25.9973 54.8807 26.0232C54.8991 26.0491 54.9091 26.0802 54.9091 26.1121C54.9091 26.1439 54.8991 26.175 54.8807 26.2009Z" fill="#DDDDDD"/>
</g>
<path d="M45.5795 39.625C45.1945 39.625 44.892 39.9275 44.892 40.3125V45.8125C44.892 47.71 43.352 49.25 41.4545 49.25H30.4545C28.557 49.25 27.017 47.71 27.017 45.8125V38.25H41.4545C41.8395 38.25 42.142 37.9475 42.142 37.5625C42.142 37.1775 41.8395 36.875 41.4545 36.875H27.017V36.1875C27.017 34.29 28.557 32.75 30.4545 32.75H37.3295C37.7145 32.75 38.017 32.4475 38.017 32.0625C38.017 31.6775 37.7145 31.375 37.3295 31.375H30.4545C27.8007 31.375 25.642 33.5338 25.642 36.1875V45.8125C25.642 48.4662 27.8007 50.625 30.4545 50.625H41.4545C44.1082 50.625 46.267 48.4662 46.267 45.8125V40.3125C46.267 39.9275 45.9645 39.625 45.5795 39.625Z" fill="white"/>
<path d="M30.4681 34.125C30.0831 34.125 29.7943 34.4275 29.7943 34.8125C29.7943 35.1975 30.1106 35.5 30.4818 35.5C30.8531 35.5 31.1693 35.1975 31.1693 34.8125C31.1693 34.4275 30.8668 34.125 30.4818 34.125H30.4681Z" fill="white"/>
<path d="M33.2181 34.125C32.8331 34.125 32.5443 34.4275 32.5443 34.8125C32.5443 35.1975 32.8606 35.5 33.2318 35.5C33.6031 35.5 33.9193 35.1975 33.9193 34.8125C33.9193 34.4275 33.6168 34.125 33.2318 34.125H33.2181Z" fill="white"/>
<path d="M35.9681 34.125C35.5831 34.125 35.2943 34.4275 35.2943 34.8125C35.2943 35.1975 35.6106 35.5 35.9818 35.5C36.3531 35.5 36.6693 35.1975 36.6693 34.8125C36.6693 34.4275 36.3668 34.125 35.9818 34.125H35.9681Z" fill="white"/>
<g filter="url(#filter1_f_1_1229)">
<ellipse cx="38.5" cy="87" rx="67" ry="20" fill="#A47CF3"/>
</g>
<rect x="11" y="10" width="185" height="60" rx="30" stroke="url(#paint1_linear_1_1229)" stroke-width="2"/>
</g>
</g>
<defs>
<filter id="filter0_ddii_1_1229" x="0" y="0" width="78" height="78" filterUnits="userSpaceOnUse" color-interpolation-filters="sRGB">
<feFlood flood-opacity="0" result="BackgroundImageFix"/>
<feColorMatrix in="SourceAlpha" type="matrix" values="0 0 0 0 0 0 0 0 0 0 0 0 0 0 0 0 0 0 127 0" result="hardAlpha"/>
<feMorphology radius="4" operator="dilate" in="SourceAlpha" result="effect1_dropShadow_1_1229"/>
<feOffset/>
<feComposite in2="hardAlpha" operator="out"/>
<feColorMatrix type="matrix" values="0 0 0 0 1 0 0 0 0 1 0 0 0 0 1 0 0 0 0.07 0"/>
<feBlend mode="normal" in2="BackgroundImageFix" result="effect1_dropShadow_1_1229"/>
<feColorMatrix in="SourceAlpha" type="matrix" values="0 0 0 0 0 0 0 0 0 0 0 0 0 0 0 0 0 0 127 0" result="hardAlpha"/>
<feOffset/>
<feGaussianBlur stdDeviation="5"/>
<feComposite in2="hardAlpha" operator="out"/>
<feColorMatrix type="matrix" values="0 0 0 0 0.439216 0 0 0 0 0.188235 0 0 0 0 0.627451 0 0 0 0.42 0"/>
<feBlend mode="normal" in2="effect1_dropShadow_1_1229" result="effect2_dropShadow_1_1229"/>
<feBlend mode="normal" in="SourceGraphic" in2="effect2_dropShadow_1_1229" result="shape"/>
<feColorMatrix in="SourceAlpha" type="matrix" values="0 0 0 0 0 0 0 0 0 0 0 0 0 0 0 0 0 0 127 0" result="hardAlpha"/>
<feOffset dy="1"/>
<feComposite in2="hardAlpha" operator="arithmetic" k2="-1" k3="1"/>
<feColorMatrix type="matrix" values="0 0 0 0 1 0 0 0 0 1 0 0 0 0 1 0 0 0 0.4 0"/>
<feBlend mode="normal" in2="shape" result="effect3_innerShadow_1_1229"/>
<feColorMatrix in="SourceAlpha" type="matrix" values="0 0 0 0 0 0 0 0 0 0 0 0 0 0 0 0 0 0 127 0" result="hardAlpha"/>
<feOffset dy="-3"/>
<feComposite in2="hardAlpha" operator="arithmetic" k2="-1" k3="1"/>
<feColorMatrix type="matrix" values="0 0 0 0 0 0 0 0 0 0 0 0 0 0 0 0 0 0 0.2 0"/>
<feBlend mode="normal" in2="effect3_innerShadow_1_1229" result="effect4_innerShadow_1_1229"/>
</filter>
<filter id="filter1_f_1_1229" x="-64.5" y="31" width="206" height="112" filterUnits="userSpaceOnUse" color-interpolation-filters="sRGB">
<feFlood flood-opacity="0" result="BackgroundImageFix"/>
<feBlend mode="normal" in="SourceGraphic" in2="BackgroundImageFix" result="shape"/>
<feGaussianBlur stdDeviation="18" result="effect1_foregroundBlur_1_1229"/>
</filter>
<linearGradient id="paint0_linear_1_1229" x1="10" y1="39" x2="68" y2="39" gradientUnits="userSpaceOnUse">
<stop stop-color="#13C2C2"/>
<stop offset="1" stop-color="#5E29CD"/>
</linearGradient>
<linearGradient id="paint1_linear_1_1229" x1="103.5" y1="9" x2="103.5" y2="71" gradientUnits="userSpaceOnUse">
<stop stop-color="white"/>
<stop offset="1" stop-color="white" stop-opacity="0"/>
</linearGradient>
<clipPath id="clip0_1_1229">
<rect x="10" y="10" width="58" height="58" rx="29" fill="white"/>
</clipPath>
<clipPath id="clip1_1_1229">
<rect width="16.9091" height="16.9091" fill="white" transform="matrix(4.37114e-08 -1 -1 -4.37114e-08 54.9091 37.9092)"/>
</clipPath>
</defs>
</svg>
