<svg width="26" height="26" viewBox="0 0 26 26" fill="none" xmlns="http://www.w3.org/2000/svg">
<path d="M2.89844 22.6025H6.37571V24.9207C6.37571 25.0744 6.31465 25.2218 6.20597 25.3305C6.09728 25.4392 5.94987 25.5003 5.79616 25.5003H3.47798C3.32428 25.5003 3.17687 25.4392 3.06818 25.3305C2.9595 25.2218 2.89844 25.0744 2.89844 24.9207V22.6025Z" fill="url(#paint0_linear_1_387)"/>
<path d="M2.89844 24.3409H6.37571V24.9205C6.37571 25.0742 6.31465 25.2216 6.20597 25.3303C6.09728 25.439 5.94987 25.5 5.79616 25.5H3.47798C3.32428 25.5 3.17687 25.439 3.06818 25.3303C2.9595 25.2216 2.89844 25.0742 2.89844 24.9205V24.3409Z" fill="url(#paint1_linear_1_387)"/>
<path d="M19.125 22.6025H22.6023V24.9207C22.6023 25.0744 22.5412 25.2218 22.4325 25.3305C22.3238 25.4392 22.1764 25.5003 22.0227 25.5003H19.7045C19.5508 25.5003 19.4034 25.4392 19.2947 25.3305C19.1861 25.2218 19.125 25.0744 19.125 24.9207V22.6025Z" fill="url(#paint2_linear_1_387)"/>
<path d="M19.125 24.3409H22.6023V24.9205C22.6023 25.0742 22.5412 25.2216 22.4325 25.3303C22.3238 25.439 22.1764 25.5 22.0227 25.5H19.7045C19.5508 25.5 19.4034 25.439 19.2947 25.3303C19.1861 25.2216 19.125 25.0742 19.125 24.9205V24.3409Z" fill="url(#paint3_linear_1_387)"/>
<path d="M0.579545 9.27246H2.31818C2.7793 9.27246 3.22153 9.45564 3.54758 9.7817C3.87364 10.1078 4.05682 10.55 4.05682 11.0111V12.1702H0.579545C0.42584 12.1702 0.278431 12.1091 0.169745 12.0004C0.0610591 11.8918 0 11.7443 0 11.5906V9.85201C0 9.6983 0.0610591 9.55089 0.169745 9.44221C0.278431 9.33352 0.42584 9.27246 0.579545 9.27246Z" fill="url(#paint4_linear_1_387)"/>
<path d="M0.578857 9.27246H2.31749C2.77861 9.27246 3.22084 9.45564 3.5469 9.7817C3.87295 10.1078 4.05613 10.55 4.05613 11.0111V12.1702H0.578857V9.27246Z" fill="url(#paint5_linear_1_387)"/>
<path d="M24.9205 12.1709H21.4432V11.0118C21.4432 10.5507 21.6264 10.1085 21.9524 9.78241C22.2785 9.45635 22.7207 9.27317 23.1818 9.27317H24.9205C25.0742 9.27317 25.2216 9.33423 25.3303 9.44292C25.4389 9.5516 25.5 9.69901 25.5 9.85272V11.5914C25.5 11.7451 25.4389 11.8925 25.3303 12.0012C25.2216 12.1098 25.0742 12.1709 24.9205 12.1709Z" fill="url(#paint6_linear_1_387)"/>
<path d="M24.9214 9.27246H23.1827C22.7216 9.27246 22.2794 9.45564 21.9533 9.7817C21.6273 10.1078 21.4441 10.55 21.4441 11.0111V12.1702H24.9214V9.27246Z" fill="url(#paint7_linear_1_387)"/>
<path d="M9.27445 0H16.229C16.5364 0 16.8312 0.122118 17.0486 0.33949C17.266 0.556862 17.3881 0.851681 17.3881 1.15909V3.47727H8.11536V1.15909C8.11536 0.851681 8.23747 0.556862 8.45485 0.33949C8.67222 0.122118 8.96704 0 9.27445 0Z" fill="url(#paint8_linear_1_387)"/>
<path d="M17.3881 1.15907H8.11536V3.47725H17.3881V1.15907Z" fill="url(#paint9_linear_1_387)"/>
<path d="M19.4087 2.89746H6.09309C5.53021 2.89752 4.98658 3.10238 4.56365 3.47381C4.14071 3.84524 3.86737 4.35786 3.79461 4.91602L2.31909 16.227H23.1827L21.7072 4.91602C21.6345 4.35786 21.3611 3.84524 20.9382 3.47381C20.5152 3.10238 19.9716 2.89752 19.4087 2.89746Z" fill="url(#paint10_linear_1_387)"/>
<path d="M3.22608 9.27246L2.31909 16.227H23.1827L22.2757 9.27246H3.22608Z" fill="url(#paint11_linear_1_387)"/>
<path d="M3.6348 15.0682L4.93935 5.06578C4.97651 4.78696 5.1135 4.53106 5.32493 4.34553C5.53636 4.16 5.80788 4.05741 6.08917 4.05679H19.4048C19.6859 4.05741 19.9573 4.15993 20.1686 4.34536C20.38 4.53078 20.5169 4.78653 20.554 5.0652L21.8586 15.0682H3.6348Z" fill="url(#paint12_linear_1_387)"/>
<path d="M4.2998 14.489L5.51685 5.14151C5.53505 5.00159 5.60367 4.87313 5.70983 4.78019C5.81599 4.68726 5.95241 4.63625 6.0935 4.63672H19.4091C19.5498 4.63665 19.6858 4.68778 19.7915 4.78055C19.8973 4.87333 19.9658 5.00142 19.984 5.14093L21.2028 14.489H4.2998Z" fill="url(#paint13_linear_1_387)"/>
<path d="M4.82893 10.4318L4.2998 14.4886H21.2028L20.6737 10.4318H4.82893Z" fill="url(#paint14_linear_1_387)"/>
<path d="M3.47639 13.3291H22.0218C22.6367 13.3291 23.2263 13.5733 23.661 14.0081C24.0958 14.4428 24.34 15.0325 24.34 15.6473V22.0223C24.34 22.3297 24.2179 22.6245 24.0005 22.8419C23.7832 23.0593 23.4883 23.1814 23.1809 23.1814H2.31729C2.00988 23.1814 1.71506 23.0593 1.49769 22.8419C1.28032 22.6245 1.1582 22.3297 1.1582 22.0223V15.6473C1.1582 15.0325 1.40244 14.4428 1.83718 14.0081C2.27193 13.5733 2.86156 13.3291 3.47639 13.3291Z" fill="url(#paint15_linear_1_387)"/>
<path d="M1.1582 17.9659V22.0228C1.1582 22.3302 1.28032 22.625 1.49769 22.8424C1.71506 23.0597 2.00988 23.1819 2.31729 23.1819H23.1809C23.4883 23.1819 23.7832 23.0597 24.0005 22.8424C24.2179 22.625 24.34 22.3302 24.34 22.0228V17.9659H1.1582Z" fill="url(#paint16_linear_1_387)"/>
<path d="M8.69421 17.9659V19.7046H4.05785C3.75044 19.7046 3.45562 19.5825 3.23825 19.3651C3.02088 19.1477 2.89876 18.8529 2.89876 18.5455V16.2273C2.89876 15.9199 3.02088 15.6251 3.23825 15.4077C3.45562 15.1903 3.75044 15.0682 4.05785 15.0682H5.79649C6.56501 15.0682 7.30206 15.3735 7.84549 15.9169C8.38892 16.4604 8.69421 17.1974 8.69421 17.9659Z" fill="url(#paint17_linear_1_387)"/>
<path d="M22.6016 16.2273V18.5455C22.6016 18.8529 22.4794 19.1477 22.2621 19.3651C22.0447 19.5825 21.7499 19.7046 21.4425 19.7046H16.8061V17.966C16.8061 17.1974 17.1114 16.4604 17.6548 15.917C18.1983 15.3735 18.9353 15.0682 19.7038 15.0682H21.4425C21.7499 15.0682 22.0447 15.1904 22.2621 15.4077C22.4794 15.6251 22.6016 15.9199 22.6016 16.2273Z" fill="url(#paint18_linear_1_387)"/>
<path d="M1.1582 21.4432H24.34V22.0228C24.34 22.3302 24.2179 22.625 24.0005 22.8424C23.7832 23.0598 23.4883 23.1819 23.1809 23.1819H2.31729C2.00988 23.1819 1.71506 23.0598 1.49769 22.8424C1.28032 22.625 1.1582 22.3302 1.1582 22.0228V21.4432Z" fill="url(#paint19_linear_1_387)"/>
<path d="M14.4877 16.8066H11.0105C10.8567 16.8066 10.7093 16.7455 10.6007 16.6368C10.492 16.5281 10.4309 16.3807 10.4309 16.227C10.4309 16.0733 10.492 15.9259 10.6007 15.8172C10.7093 15.7085 10.8567 15.6475 11.0105 15.6475H14.4877C14.6414 15.6475 14.7888 15.7085 14.8975 15.8172C15.0062 15.9259 15.0673 16.0733 15.0673 16.227C15.0673 16.3807 15.0062 16.5281 14.8975 16.6368C14.7888 16.7455 14.6414 16.8066 14.4877 16.8066Z" fill="url(#paint20_linear_1_387)"/>
<path d="M14.4876 19.125H11.0103C10.8566 19.125 10.7092 19.064 10.6005 18.9553C10.4918 18.8466 10.4308 18.6992 10.4308 18.5455C10.4308 18.3918 10.4918 18.2444 10.6005 18.1357C10.7092 18.027 10.8566 17.9659 11.0103 17.9659H14.4876C14.6413 17.9659 14.7887 18.027 14.8974 18.1357C15.0061 18.2444 15.0672 18.3918 15.0672 18.5455C15.0672 18.6992 15.0061 18.8466 14.8974 18.9553C14.7887 19.064 14.6413 19.125 14.4876 19.125Z" fill="url(#paint21_linear_1_387)"/>
<path d="M4.05611 15.6475H5.79474C6.40956 15.6475 6.9992 15.8917 7.43395 16.3264C7.86869 16.7612 8.11293 17.3508 8.11293 17.9656V19.1247H4.05611C3.9024 19.1247 3.75499 19.0637 3.64631 18.955C3.53762 18.8463 3.47656 18.6989 3.47656 18.5452V16.227C3.47656 16.0733 3.53762 15.9259 3.64631 15.8172C3.75499 15.7085 3.9024 15.6475 4.05611 15.6475Z" fill="url(#paint22_linear_1_387)"/>
<path d="M21.4439 19.125H17.3871V17.9659C17.3871 17.3511 17.6313 16.7615 18.0661 16.3267C18.5008 15.892 19.0904 15.6477 19.7053 15.6477H21.4439C21.5976 15.6477 21.745 15.7088 21.8537 15.8175C21.9624 15.9262 22.0234 16.0736 22.0234 16.2273V18.5455C22.0234 18.6992 21.9624 18.8466 21.8537 18.9553C21.745 19.0639 21.5976 19.125 21.4439 19.125Z" fill="url(#paint23_linear_1_387)"/>
<path d="M17.7063 16.8068C17.4979 17.1577 17.3869 17.5578 17.3846 17.9659V19.125H21.4415C21.5952 19.125 21.7426 19.0639 21.8513 18.9552C21.9599 18.8465 22.021 18.6991 22.021 18.5454V16.8068H17.7063Z" fill="url(#paint24_linear_1_387)"/>
<path d="M3.47656 16.8068V18.5454C3.47656 18.6991 3.53762 18.8465 3.64631 18.9552C3.75499 19.0639 3.9024 19.1249 4.05611 19.1249H8.11293V17.9659C8.1107 17.5578 7.99967 17.1576 7.79128 16.8068H3.47656Z" fill="url(#paint25_linear_1_387)"/>
<path d="M2.31729 23.1816H23.1809C23.4883 23.1816 23.7832 23.0594 24.0005 22.8421C24.2179 22.6247 24.34 22.3299 24.34 22.0225H1.1582C1.1582 22.3299 1.28032 22.6247 1.49769 22.8421C1.71506 23.0594 2.00988 23.1816 2.31729 23.1816Z" fill="url(#paint26_linear_1_387)"/>
<defs>
<linearGradient id="paint0_linear_1_387" x1="4.63707" y1="22.7156" x2="4.63707" y2="25.4609" gradientUnits="userSpaceOnUse">
<stop stop-color="#3F4C56"/>
<stop offset="1" stop-color="#27333E"/>
</linearGradient>
<linearGradient id="paint1_linear_1_387" x1="4.63707" y1="24.3861" x2="4.63707" y2="25.4844" gradientUnits="userSpaceOnUse">
<stop stop-color="#3F4C56" stop-opacity="0"/>
<stop offset="1" stop-color="#141414"/>
</linearGradient>
<linearGradient id="paint2_linear_1_387" x1="20.8636" y1="22.7156" x2="20.8636" y2="25.4609" gradientUnits="userSpaceOnUse">
<stop stop-color="#3F4C56"/>
<stop offset="1" stop-color="#27333E"/>
</linearGradient>
<linearGradient id="paint3_linear_1_387" x1="20.8636" y1="24.3861" x2="20.8636" y2="25.4844" gradientUnits="userSpaceOnUse">
<stop stop-color="#3F4C56" stop-opacity="0"/>
<stop offset="1" stop-color="#141414"/>
</linearGradient>
<linearGradient id="paint4_linear_1_387" x1="0" y1="10.7213" x2="3.45293" y2="10.7213" gradientUnits="userSpaceOnUse">
<stop stop-color="#FFCA4F"/>
<stop offset="1" stop-color="#F7AE30"/>
</linearGradient>
<linearGradient id="paint5_linear_1_387" x1="3.36183" y1="10.7213" x2="0.62696" y2="10.7213" gradientUnits="userSpaceOnUse">
<stop stop-color="#F4901F"/>
<stop offset="1" stop-color="#FFCA4F" stop-opacity="0"/>
</linearGradient>
<linearGradient id="paint6_linear_1_387" x1="25.5" y1="10.722" x2="22.0471" y2="10.722" gradientUnits="userSpaceOnUse">
<stop stop-color="#FFCA4F"/>
<stop offset="1" stop-color="#F7AE30"/>
</linearGradient>
<linearGradient id="paint7_linear_1_387" x1="22.1384" y1="10.7213" x2="24.8733" y2="10.7213" gradientUnits="userSpaceOnUse">
<stop stop-color="#F4901F"/>
<stop offset="1" stop-color="#FFCA4F" stop-opacity="0"/>
</linearGradient>
<linearGradient id="paint8_linear_1_387" x1="12.7517" y1="0.115909" x2="12.7517" y2="3.42164" gradientUnits="userSpaceOnUse">
<stop stop-color="#FF4343"/>
<stop offset="1" stop-color="#E40000"/>
</linearGradient>
<linearGradient id="paint9_linear_1_387" x1="12.7517" y1="1.23615" x2="12.7517" y2="3.44016" gradientUnits="userSpaceOnUse">
<stop stop-color="#FF4343" stop-opacity="0"/>
<stop offset="1" stop-color="#AF0000"/>
</linearGradient>
<linearGradient id="paint10_linear_1_387" x1="12.7509" y1="2.94556" x2="12.7509" y2="14.4918" gradientUnits="userSpaceOnUse">
<stop stop-color="#FFCA4F"/>
<stop offset="1" stop-color="#F7AE30"/>
</linearGradient>
<linearGradient id="paint11_linear_1_387" x1="12.7509" y1="9.29738" x2="12.7509" y2="15.3218" gradientUnits="userSpaceOnUse">
<stop stop-color="#FFCA4F" stop-opacity="0"/>
<stop offset="1" stop-color="#F4901F"/>
</linearGradient>
<linearGradient id="paint12_linear_1_387" x1="12.747" y1="4.05679" x2="12.747" y2="14.7882" gradientUnits="userSpaceOnUse">
<stop stop-color="#F4901F"/>
<stop offset="1" stop-color="#FFCA4F" stop-opacity="0"/>
</linearGradient>
<linearGradient id="paint13_linear_1_387" x1="12.7513" y1="4.63672" x2="12.7513" y2="14.2386" gradientUnits="userSpaceOnUse">
<stop stop-color="#EAECF7"/>
<stop offset="1" stop-color="#CDD3F1"/>
</linearGradient>
<linearGradient id="paint14_linear_1_387" x1="12.7513" y1="10.4318" x2="12.7513" y2="14.3854" gradientUnits="userSpaceOnUse">
<stop stop-color="#E2E5F4" stop-opacity="0"/>
<stop offset="1" stop-color="#9AA6E2"/>
</linearGradient>
<linearGradient id="paint15_linear_1_387" x1="12.7491" y1="13.4381" x2="12.7491" y2="23.0226" gradientUnits="userSpaceOnUse">
<stop stop-color="#FFCA4F"/>
<stop offset="1" stop-color="#F7AE30"/>
</linearGradient>
<linearGradient id="paint16_linear_1_387" x1="12.7491" y1="18.0233" x2="12.7491" y2="21.6611" gradientUnits="userSpaceOnUse">
<stop stop-color="#FFCA4F" stop-opacity="0"/>
<stop offset="1" stop-color="#F4901F"/>
</linearGradient>
<linearGradient id="paint17_linear_1_387" x1="5.79649" y1="15.1325" x2="5.79649" y2="19.6721" gradientUnits="userSpaceOnUse">
<stop stop-color="#F4901F"/>
<stop offset="1" stop-color="#FFCA4F" stop-opacity="0"/>
</linearGradient>
<linearGradient id="paint18_linear_1_387" x1="19.7038" y1="15.0682" x2="19.7038" y2="19.7371" gradientUnits="userSpaceOnUse">
<stop stop-color="#F4901F"/>
<stop offset="1" stop-color="#FFCA4F" stop-opacity="0"/>
</linearGradient>
<linearGradient id="paint19_linear_1_387" x1="12.7491" y1="21.5157" x2="12.7491" y2="23.1471" gradientUnits="userSpaceOnUse">
<stop stop-color="#FF4343"/>
<stop offset="1" stop-color="#E40000"/>
</linearGradient>
<linearGradient id="paint20_linear_1_387" x1="12.7491" y1="15.6475" x2="12.7491" y2="16.7921" gradientUnits="userSpaceOnUse">
<stop stop-color="#3F4C56"/>
<stop offset="1" stop-color="#27333E"/>
</linearGradient>
<linearGradient id="paint21_linear_1_387" x1="12.749" y1="18.0024" x2="12.749" y2="19.1134" gradientUnits="userSpaceOnUse">
<stop stop-color="#3F4C56"/>
<stop offset="1" stop-color="#27333E"/>
</linearGradient>
<linearGradient id="paint22_linear_1_387" x1="5.79474" y1="15.6956" x2="5.79474" y2="19.1004" gradientUnits="userSpaceOnUse">
<stop stop-color="#EAECF7"/>
<stop offset="1" stop-color="#CDD3F1"/>
</linearGradient>
<linearGradient id="paint23_linear_1_387" x1="19.7053" y1="15.6477" x2="19.7053" y2="19.1493" gradientUnits="userSpaceOnUse">
<stop stop-color="#EAECF7"/>
<stop offset="1" stop-color="#CDD3F1"/>
</linearGradient>
<linearGradient id="paint24_linear_1_387" x1="19.7028" y1="16.8068" x2="19.7028" y2="19.9236" gradientUnits="userSpaceOnUse">
<stop stop-color="#E2E5F4" stop-opacity="0"/>
<stop offset="1" stop-color="#9AA6E2"/>
</linearGradient>
<linearGradient id="paint25_linear_1_387" x1="5.79474" y1="16.9656" x2="5.79474" y2="19.9224" gradientUnits="userSpaceOnUse">
<stop stop-color="#E2E5F4" stop-opacity="0"/>
<stop offset="1" stop-color="#9AA6E2"/>
</linearGradient>
<linearGradient id="paint26_linear_1_387" x1="-1.15998" y1="22.0706" x2="12.7491" y2="23.3148" gradientUnits="userSpaceOnUse">
<stop stop-color="#FF4343" stop-opacity="0"/>
<stop offset="1" stop-color="#AF0000"/>
</linearGradient>
</defs>
</svg>
