<svg width="24" height="24" viewBox="0 0 24 24" fill="none" xmlns="http://www.w3.org/2000/svg">
<path d="M12 13C14.76 13 17 10.76 17 8C17 5.24 14.76 3 12 3C9.24 3 7 5.24 7 8C7 10.76 9.24 13 12 13ZM12 4C14.21 4 16 5.79 16 8C16 10.21 14.21 12 12 12C9.79 12 8 10.21 8 8C8 5.79 9.79 4 12 4Z" fill="#545C5C" stroke="#545C5C" stroke-width="0.5"/>
<path d="M17.3333 15H6.66667C4.09333 15 2 16.57 2 18.5C2 20.43 4.09333 22 6.66667 22H17.3333C19.9067 22 22 20.43 22 18.5C22 16.57 19.9067 15 17.3333 15ZM17.3333 21H6.66667C4.82667 21 3.33333 19.88 3.33333 18.5C3.33333 17.12 4.82667 16 6.66667 16H17.3333C19.1733 16 20.6667 17.12 20.6667 18.5C20.6667 19.88 19.1733 21 17.3333 21Z" fill="#545C5C" stroke="#545C5C" stroke-width="0.5"/>
</svg>
