<svg width="28" height="22" viewBox="0 0 28 22" fill="none" xmlns="http://www.w3.org/2000/svg">
<path d="M22.5 0H10.625C10.4592 0 10.3003 0.0658481 10.1831 0.183058C10.0658 0.300269 10 0.45924 10 0.625C10 0.79076 10.0658 0.949731 10.1831 1.06694C10.3003 1.18415 10.4592 1.25 10.625 1.25H11.25V3.75C11.25 3.91576 11.3158 4.07473 11.4331 4.19194C11.5503 4.30915 11.7092 4.375 11.875 4.375C12.0408 4.375 12.1997 4.30915 12.3169 4.19194C12.4342 4.07473 12.5 3.91576 12.5 3.75V1.25H14.375V3.75C14.375 3.91576 14.4408 4.07473 14.5581 4.19194C14.6753 4.30915 14.8342 4.375 15 4.375C15.1658 4.375 15.3247 4.30915 15.4419 4.19194C15.5592 4.07473 15.625 3.91576 15.625 3.75V1.25H17.5V3.75C17.5 3.91576 17.5658 4.07473 17.6831 4.19194C17.8003 4.30915 17.9592 4.375 18.125 4.375C18.2908 4.375 18.4497 4.30915 18.5669 4.19194C18.6842 4.07473 18.75 3.91576 18.75 3.75V1.25H20.625V3.75C20.625 3.91576 20.6908 4.07473 20.8081 4.19194C20.9253 4.30915 21.0842 4.375 21.25 4.375C21.4158 4.375 21.5747 4.30915 21.6919 4.19194C21.8092 4.07473 21.875 3.91576 21.875 3.75V1.25H22.5C22.6658 1.25 22.8247 1.18415 22.9419 1.06694C23.0592 0.949731 23.125 0.79076 23.125 0.625C23.125 0.45924 23.0592 0.300269 22.9419 0.183058C22.8247 0.0658481 22.6658 0 22.5 0Z" fill="url(#paint0_linear_1_425)"/>
<path d="M14.375 3.75C14.375 3.91576 14.4408 4.07473 14.5581 4.19194C14.6753 4.30915 14.8342 4.375 15 4.375C15.1658 4.375 15.3247 4.30915 15.4419 4.19194C15.5592 4.07473 15.625 3.91576 15.625 3.75V1.25H14.375V3.75Z" fill="url(#paint1_linear_1_425)"/>
<path d="M11.25 3.75C11.25 3.91576 11.3158 4.07473 11.4331 4.19194C11.5503 4.30915 11.7092 4.375 11.875 4.375C12.0408 4.375 12.1997 4.30915 12.3169 4.19194C12.4342 4.07473 12.5 3.91576 12.5 3.75V1.25H11.25V3.75Z" fill="url(#paint2_linear_1_425)"/>
<path d="M17.5 3.75C17.5 3.91576 17.5658 4.07473 17.6831 4.19194C17.8003 4.30915 17.9592 4.375 18.125 4.375C18.2908 4.375 18.4497 4.30915 18.5669 4.19194C18.6842 4.07473 18.75 3.91576 18.75 3.75V1.25H17.5V3.75Z" fill="url(#paint3_linear_1_425)"/>
<path d="M20.625 3.75C20.625 3.91576 20.6908 4.07473 20.8081 4.19194C20.9253 4.30915 21.0842 4.375 21.25 4.375C21.4158 4.375 21.5747 4.30915 21.6919 4.19194C21.8092 4.07473 21.875 3.91576 21.875 3.75V1.25H20.625V3.75Z" fill="url(#paint4_linear_1_425)"/>
<path d="M26.875 3.75H9.9575C9.42569 3.75023 8.90782 3.92005 8.47914 4.23476C8.05045 4.54947 7.73329 4.99269 7.57375 5.5L4.375 15.625H24.375V6.25L27.5 5.625V4.375C27.5 4.20924 27.4342 4.05027 27.3169 3.93306C27.1997 3.81585 27.0408 3.75 26.875 3.75Z" fill="url(#paint5_linear_1_425)"/>
<path d="M6.15125 10L4.375 15.625H24.375V10H6.15125Z" fill="url(#paint6_linear_1_425)"/>
<path d="M10.1375 10C9.95253 10 9.76985 9.95894 9.60266 9.87979C9.43547 9.80064 9.28793 9.68537 9.17068 9.54229C9.05343 9.39922 8.9694 9.2319 8.92465 9.05242C8.87989 8.87293 8.87553 8.68575 8.91188 8.50438L9.28688 6.62938C9.34428 6.34655 9.49749 6.09219 9.72066 5.90921C9.94383 5.72624 10.2233 5.62585 10.5119 5.625H14.375C14.7065 5.625 15.0245 5.7567 15.2589 5.99112C15.4933 6.22554 15.625 6.54348 15.625 6.875V8.75C15.625 9.08152 15.4933 9.39946 15.2589 9.63388C15.0245 9.8683 14.7065 10 14.375 10H10.1375Z" fill="url(#paint7_linear_1_425)"/>
<path d="M21.25 5.625H18.125C17.4346 5.625 16.875 6.18464 16.875 6.875V8.75C16.875 9.44036 17.4346 10 18.125 10H21.25C21.9404 10 22.5 9.44036 22.5 8.75V6.875C22.5 6.18464 21.9404 5.625 21.25 5.625Z" fill="url(#paint8_linear_1_425)"/>
<path d="M9.89938 6.75L9.52438 8.625C9.50583 8.71587 9.50773 8.80973 9.52996 8.89977C9.55218 8.98981 9.59417 9.07377 9.65286 9.14558C9.71156 9.21738 9.78551 9.27522 9.86933 9.3149C9.95315 9.35458 10.0448 9.37511 10.1375 9.375H14.375C14.5408 9.375 14.6997 9.30915 14.8169 9.19194C14.9342 9.07473 15 8.91576 15 8.75V6.875C15 6.70924 14.9342 6.55027 14.8169 6.43306C14.6997 6.31585 14.5408 6.25 14.375 6.25H10.5125C10.3683 6.24983 10.2285 6.29951 10.1168 6.39064C10.005 6.48176 9.92821 6.60872 9.89938 6.75Z" fill="#D3DBEF"/>
<path d="M21.25 6.25H18.125C17.7798 6.25 17.5 6.52982 17.5 6.875V8.75C17.5 9.09518 17.7798 9.375 18.125 9.375H21.25C21.5952 9.375 21.875 9.09518 21.875 8.75V6.875C21.875 6.52982 21.5952 6.25 21.25 6.25Z" fill="#D3DBEF"/>
<path d="M23.7156 21.875H6.25C6.25 21.875 0 18.75 0 11.875H12.5L15.625 15H27.5L26.125 20.0325C25.9809 20.5612 25.667 21.028 25.2317 21.3609C24.7963 21.6938 24.2637 21.8744 23.7156 21.875Z" fill="url(#paint9_linear_1_425)"/>
<path d="M0.679688 15.625C1.77147 18.2812 3.73621 20.4858 6.24969 21.875H23.7153C24.2633 21.8744 24.796 21.6938 25.2313 21.3609C25.6667 21.028 25.9806 20.5612 26.1247 20.0325L27.3291 15.625H0.679688Z" fill="url(#paint10_linear_1_425)"/>
<defs>
<linearGradient id="paint0_linear_1_425" x1="16.5625" y1="-0.03875" x2="16.5625" y2="4.33625" gradientUnits="userSpaceOnUse">
<stop stop-color="#3F4C56"/>
<stop offset="1" stop-color="#27333E"/>
</linearGradient>
<linearGradient id="paint1_linear_1_425" x1="15" y1="1.4325" x2="15" y2="4.06313" gradientUnits="userSpaceOnUse">
<stop stop-color="#3F4C56" stop-opacity="0"/>
<stop offset="1" stop-color="#141414"/>
</linearGradient>
<linearGradient id="paint2_linear_1_425" x1="11.875" y1="1.4325" x2="11.875" y2="4.06313" gradientUnits="userSpaceOnUse">
<stop stop-color="#3F4C56" stop-opacity="0"/>
<stop offset="1" stop-color="#141414"/>
</linearGradient>
<linearGradient id="paint3_linear_1_425" x1="18.125" y1="1.4325" x2="18.125" y2="4.06313" gradientUnits="userSpaceOnUse">
<stop stop-color="#3F4C56" stop-opacity="0"/>
<stop offset="1" stop-color="#141414"/>
</linearGradient>
<linearGradient id="paint4_linear_1_425" x1="21.25" y1="1.4325" x2="21.25" y2="4.06313" gradientUnits="userSpaceOnUse">
<stop stop-color="#3F4C56" stop-opacity="0"/>
<stop offset="1" stop-color="#141414"/>
</linearGradient>
<linearGradient id="paint5_linear_1_425" x1="15.9375" y1="3.80188" x2="15.9375" y2="15.6325" gradientUnits="userSpaceOnUse">
<stop stop-color="#9AA6E2"/>
<stop offset="1" stop-color="#7283D6"/>
</linearGradient>
<linearGradient id="paint6_linear_1_425" x1="14.375" y1="10.3112" x2="14.375" y2="15.2344" gradientUnits="userSpaceOnUse">
<stop stop-color="#7283D6" stop-opacity="0"/>
<stop offset="1" stop-color="#4D62CB"/>
</linearGradient>
<linearGradient id="paint7_linear_1_425" x1="12.2563" y1="4.86313" x2="12.2563" y2="9.98063" gradientUnits="userSpaceOnUse">
<stop stop-color="#4D62CB"/>
<stop offset="1" stop-color="#7283D6" stop-opacity="0"/>
</linearGradient>
<linearGradient id="paint8_linear_1_425" x1="19.6875" y1="4.86313" x2="19.6875" y2="9.98063" gradientUnits="userSpaceOnUse">
<stop stop-color="#4D62CB"/>
<stop offset="1" stop-color="#7283D6" stop-opacity="0"/>
</linearGradient>
<linearGradient id="paint9_linear_1_425" x1="13.75" y1="11.875" x2="13.75" y2="21.9269" gradientUnits="userSpaceOnUse">
<stop stop-color="#3F4C56"/>
<stop offset="1" stop-color="#27333E"/>
</linearGradient>
<linearGradient id="paint10_linear_1_425" x1="14.0047" y1="15.9763" x2="14.0047" y2="21.9925" gradientUnits="userSpaceOnUse">
<stop stop-color="#3F4C56" stop-opacity="0"/>
<stop offset="1" stop-color="#141414"/>
</linearGradient>
</defs>
</svg>
